# xmcd
#
# Track frame offsets:
#	150
#	15636
#	29626
#	46346
#	62418
#	77760
#	96264
#	111216
#	128246
#	145168
#	159518
#	181068
#	196519
#	215334
#	229428
#	250525
#	267814
#
# Disc length: 3775 seconds
#
# Revision: 1
# Processed by: cddbd v1.5.2PL0 Copyright (c) Steve Scherf et al.
# Submitted via: audiograbber 1.83.01
#
DISCID=de0ebd11
DTITLE=Various Artist - Nu Country Traxx 009
DYEAR=2000
DGENRE=Country
TTITLE0=Rhonda Vincent - When I Close My Eyes
TTITLE1=Kenny Chesney - Everywhere We Go
TTITLE2=Lorrie Morgan - To Get To You
TTITLE3=John Michael Montgomery - Nothing Catches Jesus By Surprise
TTITLE4=Jerry Kilgore - The Look
TTITLE5=Mark Wills - Back At One
TTITLE6=Wynonna - Con't Nobody Love You
TTITLE7=Sammy Kershaw - Me And Maxine
TTITLE8=Sonya Isaacs - I've Forgotten How You Feel
TTITLE9=Yankee Grey - Another Nine Minutes
TTITLE10=Ty Herndon - No Mercy
TTITLE11=Toby Keith - How Do You Like Me Now?
TTITLE12=Jessica Andrews - Unbreakable Heart
TTITLE13=Leann Rimes - Big Deal
TTITLE14=Tim Mcgraw - My Best Friend
TTITLE15=Jo Dee Messina - Because You Love Me
TTITLE16=Steve Holy - Don't Make Me Beg
EXTD=
EXTT0=
EXTT1=
EXTT2=
EXTT3=
EXTT4=
EXTT5=
EXTT6=
EXTT7=
EXTT8=
EXTT9=
EXTT10=
EXTT11=
EXTT12=
EXTT13=
EXTT14=
EXTT15=
EXTT16=
PLAYORDER=
